<?xml version="1.0" encoding="UTF-8" standalone="no"?>
<svg id="b4dab34b-b5a4-4c04-8515-9251491b281a" data-name="Calque 1" xmlns="http://www.w3.org/2000/svg" viewBox="0 0 141.73 141.73"><title>21</title><path d="M109.44,87.14c-7.24-6.2-28.73-23.85-38.93-23.85S38.83,80.93,31.6,87.13c-.05-1.46-.09-2.35-.09-3.66a6.31,6.31,0,0,1,1.73-4.31A127.33,127.33,0,0,1,65.89,57.77c4.9-2.07,4.63-1.68,4.62-10a2,2,0,0,1,.36,0c6.91.63,25.48,18.65,36.48,30.84,0,0,2.16,2.51,2.16,5.13,0,1.23,0,2.44-.07,3.4M109.14,77C108,75.67,80.47,45.31,70.51,45.31S33.05,75.67,31.89,77h0c-.11.13-2.8,3.2-2.8,6.78,0,2.79.19,5.59.19,5.62s.07,1.31.73,1.63a.81.81,0,0,0,.34.08,1.37,1.37,0,0,0,.81-.33c.3-.26,28.32-25,39.36-25s39.07,24.75,39.35,25a1.4,1.4,0,0,0,.83.34A.81.81,0,0,0,111,91c.65-.32.72-1.5.73-1.64s.18-2.82.18-5.61c0-3.58-2.68-6.65-2.8-6.78M89.36,115.3h0c-.28,0-1.26,0-2.22,0A5,5,0,0,1,82,110.44a4.89,4.89,0,0,1,5.08-4.76s1.24-.06,2.24,0a4.91,4.91,0,0,1,5.1,4.77,5,5,0,0,1-5.1,4.86m2.39-11.5c-3.48-.08-7,0-7,0-4.26,0-7.72,3-7.72,6.62s3.46,6.71,7.72,6.71c0,0,3.57.08,7,0,4.27,0,7.74-3,7.74-6.71s-3.4-6.52-7.74-6.62M137,117h4.34v-6.35c0-3.71-3.31-6.62-7.52-6.62h-11c-.18,0-.6,0-.6.49v12a.47.47,0,0,0,.47.49h4.58v-10a.64.64,0,0,1,.66-.67h5a3.77,3.77,0,0,1,3.47,4v6.18a.51.51,0,0,0,.53.5m-91.58-10.4h6.78V104.5a.49.49,0,0,0-.49-.51H32.88a.49.49,0,0,0-.49.5v2.07H36.9a2.87,2.87,0,0,1,2.83,2.82v7.09a.5.5,0,0,0,.49.49H44.8v-9.73a.67.67,0,0,1,.66-.67M24.6,116.47a.51.51,0,0,0,.5.49h.26l0,0a16.69,16.69,0,0,1,2.11,0h2.24V104.48a.5.5,0,0,0-.48-.5H25.1a.51.51,0,0,0-.5.5ZM60,110.06v-2.59a1.15,1.15,0,0,1,1.22-1.2H68a1.9,1.9,0,1,1,0,3.79ZM69.85,117h5c-.09-3.12-3.31-4.42-3.68-4.55l-.07,0v-.17l.06,0a4.35,4.35,0,0,0,3.66-4c0-2-2-4.18-5.11-4.18H57.58A2.62,2.62,0,0,0,55,106.63v9.84a.47.47,0,0,0,.49.49H60v-4.6h4.32A5.18,5.18,0,0,1,69.85,117Zm-52.94-8.63h4.93a8,8,0,0,0-7.42-4.64l-1.52,0c-2.37,0-3.45-.08-5.53,0a8.08,8.08,0,0,0-5.46,2,6.31,6.31,0,0,0-2.26,4.77c0,3.71,3.28,6.62,7.63,6.78,3,.1,3.3.11,7.21,0,3.63-.11,6.22-1.76,7.34-4.64H16.91a.44.44,0,0,0-.42.25,5.15,5.15,0,0,1-4.46,2.5c-1,0-2.23,0-2.23,0a4.94,4.94,0,0,1-5.1-4.86v0a5,5,0,0,1,5.11-4.83c.29,0,1.29-.05,2.22,0a5.22,5.22,0,0,1,4.46,2.48.47.47,0,0,0,.42.24m102.66,6.29H107.64A.64.64,0,0,1,107,114v-2.47H117.3c0-.16,0-2.13,0-2.28H107V107a.63.63,0,0,1,.18-.44.78.78,0,0,1,.59-.22h11.85v-1.82a.49.49,0,0,0-.14-.36A.65.65,0,0,0,119,104h-16.6a.49.49,0,0,0-.5.51v9.83a2.62,2.62,0,0,0,2.65,2.64h14.53a.52.52,0,0,0,.35-.14.5.5,0,0,0,.15-.34v-1.85m-3.71-15.34a3.65,3.65,0,0,0-3.51,0c-.47.29-.84.68-1.38.68s-.88-.39-1.37-.68a3.43,3.43,0,0,0-1.76-.45,3.29,3.29,0,0,0-1.76.45,1.16,1.16,0,0,0,0,2.16,3.7,3.7,0,0,0,3.48,0c.44-.27.91-.71,1.41-.71a2.93,2.93,0,0,1,1.38.68,3.34,3.34,0,0,0,1.75.45,3.29,3.29,0,0,0,1.78-.45,1.17,1.17,0,0,0,0-2.16" style="fill:#757271"/><path d="M109.4,58.26c-7.23-6.19-28.7-23.82-38.89-23.82S38.86,52.06,31.63,58.26c0-1.47-.08-2.36-.08-3.66a6.25,6.25,0,0,1,1.73-4.31A127.87,127.87,0,0,1,65.89,28.92c4.9-2.07,4.63-1.68,4.62-10h.36c6.9.63,25.46,18.63,36.44,30.81,0,0,2.17,2.5,2.17,5.13,0,1.22,0,2.43-.08,3.39m-.3-10.16c-1.16-1.29-28.64-31.63-38.59-31.63S33.09,46.81,31.92,48.1h0c-.11.13-2.79,3.19-2.79,6.77,0,2.78.18,5.58.18,5.61s.07,1.31.73,1.63a.81.81,0,0,0,.34.08,1.37,1.37,0,0,0,.81-.33c.3-.26,28.29-25,39.32-25s39,24.72,39.31,25a1.4,1.4,0,0,0,.83.34.81.81,0,0,0,.34-.08c.65-.32.72-1.5.72-1.64s.19-2.82.19-5.6c0-3.58-2.68-6.64-2.8-6.77" style="fill:#757271"/></svg>