<?xml version="1.0" encoding="UTF-8" standalone="no"?>
<svg xmlns="http://www.w3.org/2000/svg" viewBox="0 0 141.73 141.73"><path d="M34.81,44.47c0-2.39.23-8.14.34-11.52.18-4.36,1.05-7,2.85-8.61,2.51-2.21,5.36-2.73,12.28-3.08A406.5,406.5,0,0,1,103,22a7,7,0,0,1,3.37.81c.93.64,1,1.34,1.28,4.95.12,2.09.41,7.62.59,10.64-7-.35-19-1-29.38-1.1s-19.78.06-20.88.23a5,5,0,0,0-3.61,1.8l54,10v7.85Z" fill="#33302e"/><path d="M34.75,48.31,108.16,62c-.06,2-.24,8.32-.35,12-.18,4.36-1,7-2.85,8.61-2.5,2.21-5.35,2.73-12.28,3.08A406.36,406.36,0,0,1,40,85a7.07,7.07,0,0,1-3.37-.82c-.93-.64-1-1.34-1.28-4.94-.18-2.45-.52-9.6-.64-11.93,9.48.61,24,1.11,35.89,1.11,3,0,10.7.11,12.8.11,1.63,0,3.78-.46,4.88-2.15L34.75,57.18Z" fill="#33302e"/><path d="M101,105.1v6.12H81.43V109.5c0-2.68.43-4.44,3.58-4.44h16Zm-17.16-3.8c-5.14,0-7.51,2.72-7.51,7.12v12.34h5.13v-5.7H101v5.65h5.14V101.3Zm28.64,0v3.8h12.07v15.61h5.14V105.1h12.07v-3.8Zm-69.1,12c0,2.72.56,3.71,3.58,3.71H68.36v3.8H45.72c-5.13,0-7.55-2.33-7.55-6.69V101.3H68.32v3.8h-25v3.79h24v3.74h-24v.64ZM6.6,108.08c-1.6-.13-1.86-.69-1.86-1.64s.48-1.38,1.69-1.38H30.11V101.3H5.82c-3.45,0-5.82,1.34-5.82,5.18s1.77,5.18,5.74,5.52l19.19,1.6c1.47.13,1.9.6,1.9,1.68s-.43,1.64-1.77,1.64H1v3.79h24.5c4.22,0,6.08-1.68,6.08-5.65,0-3.62-1.68-5.09-5.78-5.43Z" fill="#33302e"/></svg>